<mxfile host="65bd71144e">
    <diagram id="-SLYa7uZ8JZ05PMzf6wq" name="Page-1">
        <mxGraphModel dx="2190" dy="-404" grid="1" gridSize="10" guides="1" tooltips="1" connect="1" arrows="1" fold="1" page="1" pageScale="1" pageWidth="850" pageHeight="1100" math="0" shadow="0">
            <root>
                <mxCell id="0"/>
                <mxCell id="1" parent="0"/>
                <mxCell id="2" value="STC.Navire" style="swimlane;fontStyle=0;align=center;verticalAlign=top;childLayout=stackLayout;horizontal=1;startSize=30;horizontalStack=0;resizeParent=1;resizeParentMax=0;resizeLast=0;collapsible=0;marginBottom=0;html=1;" parent="1" vertex="1">
                    <mxGeometry x="-260" y="2230" width="140" height="183" as="geometry"/>
                </mxCell>
                <mxCell id="4" value="NavNum : INT&amp;nbsp;&lt;br&gt;SpeCode: String&lt;br&gt;PavCode: String&amp;nbsp;&lt;br&gt;NavNom: String&amp;nbsp;&lt;br&gt;NavLong : Double&amp;nbsp;&lt;br&gt;NavTJB : String&amp;nbsp;&lt;br&gt;NavPort : String&amp;nbsp;" style="text;html=1;strokeColor=none;fillColor=none;align=left;verticalAlign=middle;spacingLeft=4;spacingRight=4;overflow=hidden;rotatable=0;points=[[0,0.5],[1,0.5]];portConstraint=eastwest;" parent="2" vertex="1">
                    <mxGeometry y="30" width="140" height="125" as="geometry"/>
                </mxCell>
                <mxCell id="7" value="" style="line;strokeWidth=1;fillColor=none;align=left;verticalAlign=middle;spacingTop=-1;spacingLeft=3;spacingRight=3;rotatable=0;labelPosition=right;points=[];portConstraint=eastwest;" parent="2" vertex="1">
                    <mxGeometry y="155" width="140" height="8" as="geometry"/>
                </mxCell>
                <mxCell id="9" value="operation1" style="text;html=1;strokeColor=none;fillColor=none;align=left;verticalAlign=middle;spacingLeft=4;spacingRight=4;overflow=hidden;rotatable=0;points=[[0,0.5],[1,0.5]];portConstraint=eastwest;" parent="2" vertex="1">
                    <mxGeometry y="163" width="140" height="20" as="geometry"/>
                </mxCell>
                <mxCell id="14" value="&lt;span style=&quot;font-size: 16px; text-align: start; background-color: rgb(32, 33, 36);&quot;&gt;&lt;font color=&quot;#ffffff&quot;&gt;Armateur&lt;/font&gt;&lt;/span&gt;" style="swimlane;fontStyle=0;align=center;verticalAlign=top;childLayout=stackLayout;horizontal=1;startSize=30;horizontalStack=0;resizeParent=1;resizeParentMax=0;resizeLast=0;collapsible=0;marginBottom=0;html=1;" parent="1" vertex="1">
                    <mxGeometry x="30" y="2500" width="140" height="183" as="geometry"/>
                </mxCell>
                <mxCell id="15" value="ArmCode : INT&amp;nbsp;&lt;br&gt;ArmCode : String&lt;br&gt;NomPrenom: String&amp;nbsp;&lt;br&gt;Adresse: String&amp;nbsp;&lt;br&gt;Tel : INT&amp;nbsp;&lt;br&gt;TelPhax : INT&amp;nbsp;&lt;br&gt;Email : String&amp;nbsp;&amp;nbsp;" style="text;html=1;strokeColor=none;fillColor=none;align=left;verticalAlign=middle;spacingLeft=4;spacingRight=4;overflow=hidden;rotatable=0;points=[[0,0.5],[1,0.5]];portConstraint=eastwest;" parent="14" vertex="1">
                    <mxGeometry y="30" width="140" height="125" as="geometry"/>
                </mxCell>
                <mxCell id="16" value="" style="line;strokeWidth=1;fillColor=none;align=left;verticalAlign=middle;spacingTop=-1;spacingLeft=3;spacingRight=3;rotatable=0;labelPosition=right;points=[];portConstraint=eastwest;" parent="14" vertex="1">
                    <mxGeometry y="155" width="140" height="8" as="geometry"/>
                </mxCell>
                <mxCell id="17" value="operation1" style="text;html=1;strokeColor=none;fillColor=none;align=left;verticalAlign=middle;spacingLeft=4;spacingRight=4;overflow=hidden;rotatable=0;points=[[0,0.5],[1,0.5]];portConstraint=eastwest;" parent="14" vertex="1">
                    <mxGeometry y="163" width="140" height="20" as="geometry"/>
                </mxCell>
                <mxCell id="18" value="&lt;div style=&quot;text-align: start;&quot;&gt;&lt;font color=&quot;#ffffff&quot;&gt;&lt;span style=&quot;font-size: 16px; background-color: rgb(255, 153, 204);&quot;&gt;Module&lt;/span&gt;&lt;/font&gt;&lt;/div&gt;" style="swimlane;fontStyle=0;align=center;verticalAlign=top;childLayout=stackLayout;horizontal=1;startSize=30;horizontalStack=0;resizeParent=1;resizeParentMax=0;resizeLast=0;collapsible=0;marginBottom=0;html=1;" parent="1" vertex="1">
                    <mxGeometry x="310" y="2020" width="140" height="118" as="geometry"/>
                </mxCell>
                <mxCell id="19" value="ModNum : INT&amp;nbsp;&lt;br&gt;ModStatus: String&lt;br&gt;" style="text;html=1;strokeColor=none;fillColor=none;align=left;verticalAlign=middle;spacingLeft=4;spacingRight=4;overflow=hidden;rotatable=0;points=[[0,0.5],[1,0.5]];portConstraint=eastwest;" parent="18" vertex="1">
                    <mxGeometry y="30" width="140" height="60" as="geometry"/>
                </mxCell>
                <mxCell id="20" value="" style="line;strokeWidth=1;fillColor=none;align=left;verticalAlign=middle;spacingTop=-1;spacingLeft=3;spacingRight=3;rotatable=0;labelPosition=right;points=[];portConstraint=eastwest;" parent="18" vertex="1">
                    <mxGeometry y="90" width="140" height="8" as="geometry"/>
                </mxCell>
                <mxCell id="21" value="operation1" style="text;html=1;strokeColor=none;fillColor=none;align=left;verticalAlign=middle;spacingLeft=4;spacingRight=4;overflow=hidden;rotatable=0;points=[[0,0.5],[1,0.5]];portConstraint=eastwest;" parent="18" vertex="1">
                    <mxGeometry y="98" width="140" height="20" as="geometry"/>
                </mxCell>
                <mxCell id="26" value="&lt;div style=&quot;text-align: start;&quot;&gt;&lt;font color=&quot;#ffffff&quot;&gt;&lt;span style=&quot;font-size: 16px; background-color: rgb(32, 33, 36);&quot;&gt;Escale&lt;/span&gt;&lt;/font&gt;&lt;/div&gt;" style="swimlane;fontStyle=0;align=center;verticalAlign=top;childLayout=stackLayout;horizontal=1;startSize=30;horizontalStack=0;resizeParent=1;resizeParentMax=0;resizeLast=0;collapsible=0;marginBottom=0;html=1;" parent="1" vertex="1">
                    <mxGeometry x="20" y="1940" width="140" height="168" as="geometry"/>
                </mxCell>
                <mxCell id="27" value="EscDAR : Date&amp;nbsp;&lt;br&gt;EscHAR: Hour&lt;br&gt;EscDSO: Date&amp;nbsp;&lt;br&gt;NavHSO: Hour&amp;nbsp;&lt;br&gt;EscDAC: Date&lt;br&gt;EscPRO: String&amp;nbsp;" style="text;html=1;strokeColor=none;fillColor=none;align=left;verticalAlign=middle;spacingLeft=4;spacingRight=4;overflow=hidden;rotatable=0;points=[[0,0.5],[1,0.5]];portConstraint=eastwest;" parent="26" vertex="1">
                    <mxGeometry y="30" width="140" height="110" as="geometry"/>
                </mxCell>
                <mxCell id="28" value="" style="line;strokeWidth=1;fillColor=none;align=left;verticalAlign=middle;spacingTop=-1;spacingLeft=3;spacingRight=3;rotatable=0;labelPosition=right;points=[];portConstraint=eastwest;" parent="26" vertex="1">
                    <mxGeometry y="140" width="140" height="8" as="geometry"/>
                </mxCell>
                <mxCell id="29" value="operation1" style="text;html=1;strokeColor=none;fillColor=none;align=left;verticalAlign=middle;spacingLeft=4;spacingRight=4;overflow=hidden;rotatable=0;points=[[0,0.5],[1,0.5]];portConstraint=eastwest;" parent="26" vertex="1">
                    <mxGeometry y="148" width="140" height="20" as="geometry"/>
                </mxCell>
                <mxCell id="30" value="&lt;div style=&quot;text-align: start;&quot;&gt;&lt;font color=&quot;#ffffff&quot;&gt;&lt;span style=&quot;font-size: 16px; background-color: rgb(32, 33, 36);&quot;&gt;Manifeste&lt;/span&gt;&lt;/font&gt;&lt;/div&gt;" style="swimlane;fontStyle=0;align=center;verticalAlign=top;childLayout=stackLayout;horizontal=1;startSize=30;horizontalStack=0;resizeParent=1;resizeParentMax=0;resizeLast=0;collapsible=0;marginBottom=0;html=1;" parent="1" vertex="1">
                    <mxGeometry x="710" y="2330" width="140" height="118" as="geometry"/>
                </mxCell>
                <mxCell id="31" value="ManNum : String&lt;br&gt;ManCode: String&lt;br&gt;Type : String&amp;nbsp;&lt;br&gt;&lt;br&gt;" style="text;html=1;strokeColor=none;fillColor=none;align=left;verticalAlign=middle;spacingLeft=4;spacingRight=4;overflow=hidden;rotatable=0;points=[[0,0.5],[1,0.5]];portConstraint=eastwest;" parent="30" vertex="1">
                    <mxGeometry y="30" width="140" height="60" as="geometry"/>
                </mxCell>
                <mxCell id="32" value="" style="line;strokeWidth=1;fillColor=none;align=left;verticalAlign=middle;spacingTop=-1;spacingLeft=3;spacingRight=3;rotatable=0;labelPosition=right;points=[];portConstraint=eastwest;" parent="30" vertex="1">
                    <mxGeometry y="90" width="140" height="8" as="geometry"/>
                </mxCell>
                <mxCell id="33" value="operation1" style="text;html=1;strokeColor=none;fillColor=none;align=left;verticalAlign=middle;spacingLeft=4;spacingRight=4;overflow=hidden;rotatable=0;points=[[0,0.5],[1,0.5]];portConstraint=eastwest;" parent="30" vertex="1">
                    <mxGeometry y="98" width="140" height="20" as="geometry"/>
                </mxCell>
                <mxCell id="34" value="&lt;div style=&quot;text-align: start;&quot;&gt;&lt;font color=&quot;#ffffff&quot;&gt;&lt;span style=&quot;font-size: 16px; background-color: rgb(32, 33, 36);&quot;&gt;DB-Conteneur&lt;/span&gt;&lt;/font&gt;&lt;/div&gt;" style="swimlane;fontStyle=0;align=center;verticalAlign=top;childLayout=stackLayout;horizontal=1;startSize=30;horizontalStack=0;resizeParent=1;resizeParentMax=0;resizeLast=0;collapsible=0;marginBottom=0;html=1;" parent="1" vertex="1">
                    <mxGeometry x="710" y="1970" width="140" height="183" as="geometry"/>
                </mxCell>
                <mxCell id="35" value="DCTNUM : INT&amp;nbsp;&lt;br&gt;TSTCOD: INT&lt;br&gt;DCTPOID: Double&lt;br&gt;DCTMAR : String&lt;br&gt;DCTSORTIE: Bool&lt;br&gt;DCTLIVRAISON : Bool&lt;br&gt;DCTEMP : String" style="text;html=1;strokeColor=none;fillColor=none;align=left;verticalAlign=middle;spacingLeft=4;spacingRight=4;overflow=hidden;rotatable=0;points=[[0,0.5],[1,0.5]];portConstraint=eastwest;" parent="34" vertex="1">
                    <mxGeometry y="30" width="140" height="125" as="geometry"/>
                </mxCell>
                <mxCell id="36" value="" style="line;strokeWidth=1;fillColor=none;align=left;verticalAlign=middle;spacingTop=-1;spacingLeft=3;spacingRight=3;rotatable=0;labelPosition=right;points=[];portConstraint=eastwest;" parent="34" vertex="1">
                    <mxGeometry y="155" width="140" height="8" as="geometry"/>
                </mxCell>
                <mxCell id="37" value="operation1" style="text;html=1;strokeColor=none;fillColor=none;align=left;verticalAlign=middle;spacingLeft=4;spacingRight=4;overflow=hidden;rotatable=0;points=[[0,0.5],[1,0.5]];portConstraint=eastwest;" parent="34" vertex="1">
                    <mxGeometry y="163" width="140" height="20" as="geometry"/>
                </mxCell>
                <mxCell id="42" value="&lt;div style=&quot;text-align: start;&quot;&gt;&lt;font color=&quot;#ffffff&quot;&gt;&lt;span style=&quot;font-size: 16px; background-color: rgb(32, 33, 36);&quot;&gt;Shift&amp;nbsp;&lt;/span&gt;&lt;/font&gt;&lt;/div&gt;" style="swimlane;fontStyle=0;align=center;verticalAlign=top;childLayout=stackLayout;horizontal=1;startSize=30;horizontalStack=0;resizeParent=1;resizeParentMax=0;resizeLast=0;collapsible=0;marginBottom=0;html=1;" parent="1" vertex="1">
                    <mxGeometry x="1070" y="1640" width="140" height="138" as="geometry"/>
                </mxCell>
                <mxCell id="43" value="SHFNum : INT&amp;nbsp;&lt;br&gt;SHFCode: String&lt;br&gt;SHFDate: Date&lt;br&gt;SHFPNT: String&amp;nbsp;&amp;nbsp;" style="text;html=1;strokeColor=none;fillColor=none;align=left;verticalAlign=middle;spacingLeft=4;spacingRight=4;overflow=hidden;rotatable=0;points=[[0,0.5],[1,0.5]];portConstraint=eastwest;" parent="42" vertex="1">
                    <mxGeometry y="30" width="140" height="80" as="geometry"/>
                </mxCell>
                <mxCell id="44" value="" style="line;strokeWidth=1;fillColor=none;align=left;verticalAlign=middle;spacingTop=-1;spacingLeft=3;spacingRight=3;rotatable=0;labelPosition=right;points=[];portConstraint=eastwest;" parent="42" vertex="1">
                    <mxGeometry y="110" width="140" height="8" as="geometry"/>
                </mxCell>
                <mxCell id="45" value="operation1" style="text;html=1;strokeColor=none;fillColor=none;align=left;verticalAlign=middle;spacingLeft=4;spacingRight=4;overflow=hidden;rotatable=0;points=[[0,0.5],[1,0.5]];portConstraint=eastwest;" parent="42" vertex="1">
                    <mxGeometry y="118" width="140" height="20" as="geometry"/>
                </mxCell>
                <mxCell id="46" value="&lt;div style=&quot;text-align: start;&quot;&gt;&lt;font color=&quot;#ffffff&quot;&gt;&lt;span style=&quot;font-size: 16px; background-color: rgb(32, 33, 36);&quot;&gt;Utilisateur&lt;/span&gt;&lt;/font&gt;&lt;/div&gt;" style="swimlane;fontStyle=0;align=center;verticalAlign=top;childLayout=stackLayout;horizontal=1;startSize=30;horizontalStack=0;resizeParent=1;resizeParentMax=0;resizeLast=0;collapsible=0;marginBottom=0;html=1;" parent="1" vertex="1">
                    <mxGeometry x="520" y="1320" width="140" height="158" as="geometry"/>
                </mxCell>
                <mxCell id="47" value="ID : INT&amp;nbsp;&lt;br&gt;NomPrenom: String&lt;br&gt;Role: String&amp;nbsp;&lt;br&gt;Adresse: String&amp;nbsp;&lt;br&gt;Tel: INT&amp;nbsp;&amp;nbsp;&lt;br&gt;" style="text;html=1;strokeColor=none;fillColor=none;align=left;verticalAlign=middle;spacingLeft=4;spacingRight=4;overflow=hidden;rotatable=0;points=[[0,0.5],[1,0.5]];portConstraint=eastwest;" parent="46" vertex="1">
                    <mxGeometry y="30" width="140" height="100" as="geometry"/>
                </mxCell>
                <mxCell id="48" value="" style="line;strokeWidth=1;fillColor=none;align=left;verticalAlign=middle;spacingTop=-1;spacingLeft=3;spacingRight=3;rotatable=0;labelPosition=right;points=[];portConstraint=eastwest;" parent="46" vertex="1">
                    <mxGeometry y="130" width="140" height="8" as="geometry"/>
                </mxCell>
                <mxCell id="49" value="operation1" style="text;html=1;strokeColor=none;fillColor=none;align=left;verticalAlign=middle;spacingLeft=4;spacingRight=4;overflow=hidden;rotatable=0;points=[[0,0.5],[1,0.5]];portConstraint=eastwest;" parent="46" vertex="1">
                    <mxGeometry y="138" width="140" height="20" as="geometry"/>
                </mxCell>
                <mxCell id="50" value="&lt;div style=&quot;text-align: start;&quot;&gt;&lt;font color=&quot;#ffffff&quot;&gt;&lt;span style=&quot;font-size: 16px; background-color: rgb(255, 153, 204);&quot;&gt;Administrateur&amp;nbsp;&lt;/span&gt;&lt;/font&gt;&lt;/div&gt;" style="swimlane;fontStyle=0;align=center;verticalAlign=top;childLayout=stackLayout;horizontal=1;startSize=30;horizontalStack=0;resizeParent=1;resizeParentMax=0;resizeLast=0;collapsible=0;marginBottom=0;html=1;" parent="1" vertex="1">
                    <mxGeometry x="250" y="1580" width="190" height="300" as="geometry"/>
                </mxCell>
                <mxCell id="51" value="ID : INT&amp;nbsp;&lt;br&gt;NomPrenom: String&lt;br&gt;Role: String&amp;nbsp;&lt;br&gt;Adresse: String&amp;nbsp;&lt;br&gt;Tel: INT&amp;nbsp;&amp;nbsp;" style="text;html=1;strokeColor=none;fillColor=none;align=left;verticalAlign=middle;spacingLeft=4;spacingRight=4;overflow=hidden;rotatable=0;points=[[0,0.5],[1,0.5]];portConstraint=eastwest;" parent="50" vertex="1">
                    <mxGeometry y="30" width="190" height="100" as="geometry"/>
                </mxCell>
                <mxCell id="52" value="" style="line;strokeWidth=1;fillColor=none;align=left;verticalAlign=middle;spacingTop=-1;spacingLeft=3;spacingRight=3;rotatable=0;labelPosition=right;points=[];portConstraint=eastwest;" parent="50" vertex="1">
                    <mxGeometry y="130" width="190" height="8" as="geometry"/>
                </mxCell>
                <mxCell id="53" value="AjouterEmployee()&amp;nbsp;&lt;br&gt;SupprimerEmploye()&lt;br&gt;ModifierEmploye()&lt;br&gt;AssignerConteneur()&lt;br&gt;AjouterModule()&lt;br&gt;ModifierModule()&lt;br&gt;SupprimerModule()&lt;br&gt;AjouterConteneur()&lt;br&gt;ModifierConteneur()" style="text;html=1;strokeColor=none;fillColor=none;align=left;verticalAlign=middle;spacingLeft=4;spacingRight=4;overflow=hidden;rotatable=0;points=[[0,0.5],[1,0.5]];portConstraint=eastwest;" parent="50" vertex="1">
                    <mxGeometry y="138" width="190" height="162" as="geometry"/>
                </mxCell>
                <mxCell id="54" value="&lt;div style=&quot;text-align: start;&quot;&gt;&lt;font color=&quot;#ffffff&quot;&gt;&lt;span style=&quot;font-size: 16px; background-color: rgb(255, 153, 204);&quot;&gt;Parc&lt;/span&gt;&lt;/font&gt;&lt;/div&gt;" style="swimlane;fontStyle=0;align=center;verticalAlign=top;childLayout=stackLayout;horizontal=1;startSize=30;horizontalStack=0;resizeParent=1;resizeParentMax=0;resizeLast=0;collapsible=0;marginBottom=0;html=1;" parent="1" vertex="1">
                    <mxGeometry x="300" y="2470" width="140" height="128" as="geometry"/>
                </mxCell>
                <mxCell id="55" value="NumParc : INT&amp;nbsp;&lt;br&gt;NomParc: String&lt;br&gt;" style="text;html=1;strokeColor=none;fillColor=none;align=left;verticalAlign=middle;spacingLeft=4;spacingRight=4;overflow=hidden;rotatable=0;points=[[0,0.5],[1,0.5]];portConstraint=eastwest;" parent="54" vertex="1">
                    <mxGeometry y="30" width="140" height="70" as="geometry"/>
                </mxCell>
                <mxCell id="56" value="" style="line;strokeWidth=1;fillColor=none;align=left;verticalAlign=middle;spacingTop=-1;spacingLeft=3;spacingRight=3;rotatable=0;labelPosition=right;points=[];portConstraint=eastwest;" parent="54" vertex="1">
                    <mxGeometry y="100" width="140" height="8" as="geometry"/>
                </mxCell>
                <mxCell id="57" value="operation1" style="text;html=1;strokeColor=none;fillColor=none;align=left;verticalAlign=middle;spacingLeft=4;spacingRight=4;overflow=hidden;rotatable=0;points=[[0,0.5],[1,0.5]];portConstraint=eastwest;" parent="54" vertex="1">
                    <mxGeometry y="108" width="140" height="20" as="geometry"/>
                </mxCell>
                <mxCell id="58" value="&lt;div style=&quot;text-align: start;&quot;&gt;&lt;font color=&quot;#ffffff&quot;&gt;&lt;span style=&quot;font-size: 16px; background-color: rgb(255, 153, 204);&quot;&gt;Zone&lt;/span&gt;&lt;/font&gt;&lt;/div&gt;" style="swimlane;fontStyle=0;align=center;verticalAlign=top;childLayout=stackLayout;horizontal=1;startSize=30;horizontalStack=0;resizeParent=1;resizeParentMax=0;resizeLast=0;collapsible=0;marginBottom=0;html=1;" parent="1" vertex="1">
                    <mxGeometry x="300" y="2250" width="140" height="128" as="geometry"/>
                </mxCell>
                <mxCell id="59" value="Zone_ID : INT&lt;br&gt;Zone_Nom : String&amp;nbsp;&lt;br&gt;Zone_Taille : DOUBLE" style="text;html=1;strokeColor=none;fillColor=none;align=left;verticalAlign=middle;spacingLeft=4;spacingRight=4;overflow=hidden;rotatable=0;points=[[0,0.5],[1,0.5]];portConstraint=eastwest;" parent="58" vertex="1">
                    <mxGeometry y="30" width="140" height="70" as="geometry"/>
                </mxCell>
                <mxCell id="60" value="" style="line;strokeWidth=1;fillColor=none;align=left;verticalAlign=middle;spacingTop=-1;spacingLeft=3;spacingRight=3;rotatable=0;labelPosition=right;points=[];portConstraint=eastwest;" parent="58" vertex="1">
                    <mxGeometry y="100" width="140" height="8" as="geometry"/>
                </mxCell>
                <mxCell id="61" value="operation1" style="text;html=1;strokeColor=none;fillColor=none;align=left;verticalAlign=middle;spacingLeft=4;spacingRight=4;overflow=hidden;rotatable=0;points=[[0,0.5],[1,0.5]];portConstraint=eastwest;" parent="58" vertex="1">
                    <mxGeometry y="108" width="140" height="20" as="geometry"/>
                </mxCell>
                <mxCell id="227" style="edgeStyle=none;html=1;exitX=0.4;exitY=0.1;exitDx=0;exitDy=0;exitPerimeter=0;entryX=0.403;entryY=1.17;entryDx=0;entryDy=0;entryPerimeter=0;" parent="1" source="70" target="17" edge="1">
                    <mxGeometry relative="1" as="geometry"/>
                </mxCell>
                <mxCell id="70" value="&lt;font color=&quot;#000000&quot;&gt;Propriaitaire du&amp;nbsp;&lt;br&gt;Navire&lt;/font&gt;" style="ellipse;shape=cloud;whiteSpace=wrap;html=1;labelBackgroundColor=none;fontFamily=Helvetica;fontColor=#FFFFFF;" parent="1" vertex="1">
                    <mxGeometry x="40" y="2750" width="120" height="70" as="geometry"/>
                </mxCell>
                <mxCell id="76" style="edgeStyle=none;html=1;fontFamily=Helvetica;fontColor=#FFFFFF;entryX=0.5;entryY=1.05;entryDx=0;entryDy=0;entryPerimeter=0;" parent="1" source="71" target="189" edge="1">
                    <mxGeometry relative="1" as="geometry">
                        <mxPoint x="1380" y="2490" as="targetPoint"/>
                    </mxGeometry>
                </mxCell>
                <mxCell id="71" value="&lt;font color=&quot;#000000&quot;&gt;Table Client&lt;/font&gt;" style="ellipse;shape=cloud;whiteSpace=wrap;html=1;labelBackgroundColor=none;fontFamily=Helvetica;fontColor=#FFFFFF;" parent="1" vertex="1">
                    <mxGeometry x="1030" y="2550" width="120" height="80" as="geometry"/>
                </mxCell>
                <mxCell id="74" style="edgeStyle=none;html=1;entryX=0;entryY=0.5;entryDx=0;entryDy=0;fontFamily=Helvetica;fontColor=#FFFFFF;" parent="1" source="73" target="19" edge="1">
                    <mxGeometry relative="1" as="geometry"/>
                </mxCell>
                <mxCell id="73" value="&lt;font color=&quot;#000000&quot;&gt;Ensemble de&amp;nbsp;&lt;br&gt;Pieces pour&amp;nbsp;&lt;br&gt;le suivie&amp;nbsp;&lt;/font&gt;" style="ellipse;shape=cloud;whiteSpace=wrap;html=1;labelBackgroundColor=none;fontFamily=Helvetica;fontColor=#FFFFFF;" parent="1" vertex="1">
                    <mxGeometry x="175" y="1945" width="120" height="80" as="geometry"/>
                </mxCell>
                <mxCell id="83" value="&lt;div style=&quot;text-align: start;&quot;&gt;&lt;font color=&quot;#ffffff&quot;&gt;&lt;span style=&quot;font-size: 16px; background-color: rgb(32, 33, 36);&quot;&gt;Transitaire&amp;nbsp;&lt;/span&gt;&lt;/font&gt;&lt;/div&gt;" style="swimlane;fontStyle=0;align=center;verticalAlign=top;childLayout=stackLayout;horizontal=1;startSize=30;horizontalStack=0;resizeParent=1;resizeParentMax=0;resizeLast=0;collapsible=0;marginBottom=0;html=1;" parent="1" vertex="1">
                    <mxGeometry x="1310" y="2597.5" width="140" height="183" as="geometry"/>
                </mxCell>
                <mxCell id="84" value="ConsCode : INT&amp;nbsp;&lt;br&gt;NomPrenom: String&lt;br&gt;Adresse: String&amp;nbsp;&lt;br&gt;Tel: int&lt;br&gt;TelPhax: int&amp;nbsp;&lt;br&gt;Email : String&amp;nbsp;" style="text;html=1;strokeColor=none;fillColor=none;align=left;verticalAlign=middle;spacingLeft=4;spacingRight=4;overflow=hidden;rotatable=0;points=[[0,0.5],[1,0.5]];portConstraint=eastwest;" parent="83" vertex="1">
                    <mxGeometry y="30" width="140" height="125" as="geometry"/>
                </mxCell>
                <mxCell id="85" value="" style="line;strokeWidth=1;fillColor=none;align=left;verticalAlign=middle;spacingTop=-1;spacingLeft=3;spacingRight=3;rotatable=0;labelPosition=right;points=[];portConstraint=eastwest;" parent="83" vertex="1">
                    <mxGeometry y="155" width="140" height="8" as="geometry"/>
                </mxCell>
                <mxCell id="86" value="operation1" style="text;html=1;strokeColor=none;fillColor=none;align=left;verticalAlign=middle;spacingLeft=4;spacingRight=4;overflow=hidden;rotatable=0;points=[[0,0.5],[1,0.5]];portConstraint=eastwest;" parent="83" vertex="1">
                    <mxGeometry y="163" width="140" height="20" as="geometry"/>
                </mxCell>
                <mxCell id="88" style="edgeStyle=none;html=1;exitX=0.55;exitY=0.95;exitDx=0;exitDy=0;exitPerimeter=0;" parent="1" source="87" edge="1">
                    <mxGeometry relative="1" as="geometry">
                        <mxPoint x="1378.6110389687733" y="2579.996753594809" as="sourcePoint"/>
                        <mxPoint x="1460" y="2690" as="targetPoint"/>
                    </mxGeometry>
                </mxCell>
                <mxCell id="87" value="Representant du&lt;br&gt;&amp;nbsp;client dans le port" style="ellipse;shape=cloud;whiteSpace=wrap;html=1;" parent="1" vertex="1">
                    <mxGeometry x="1480" y="2541.5" width="150" height="100" as="geometry"/>
                </mxCell>
                <mxCell id="90" style="edgeStyle=none;html=1;exitX=0.625;exitY=0.2;exitDx=0;exitDy=0;exitPerimeter=0;entryX=0.454;entryY=-0.003;entryDx=0;entryDy=0;entryPerimeter=0;" parent="1" source="89" target="181" edge="1">
                    <mxGeometry relative="1" as="geometry">
                        <mxPoint x="1370" y="2470" as="targetPoint"/>
                    </mxGeometry>
                </mxCell>
                <mxCell id="89" value="Real proprio de la marchandise&amp;nbsp;" style="ellipse;shape=cloud;whiteSpace=wrap;html=1;" parent="1" vertex="1">
                    <mxGeometry x="1300" y="2200" width="120" height="80" as="geometry"/>
                </mxCell>
                <mxCell id="92" style="edgeStyle=none;html=1;exitX=0.16;exitY=0.55;exitDx=0;exitDy=0;exitPerimeter=0;entryX=1.031;entryY=0.192;entryDx=0;entryDy=0;entryPerimeter=0;" parent="1" source="91" target="35" edge="1">
                    <mxGeometry relative="1" as="geometry"/>
                </mxCell>
                <mxCell id="91" value="Debarquement&amp;nbsp;&lt;br&gt;History&amp;nbsp;" style="ellipse;shape=cloud;whiteSpace=wrap;html=1;" parent="1" vertex="1">
                    <mxGeometry x="890" y="1895" width="120" height="80" as="geometry"/>
                </mxCell>
                <mxCell id="93" value="&lt;div style=&quot;text-align: start;&quot;&gt;&lt;font color=&quot;#ffffff&quot;&gt;&lt;span style=&quot;font-size: 16px; background-color: rgb(32, 33, 36);&quot;&gt;Visite&lt;/span&gt;&lt;/font&gt;&lt;/div&gt;" style="swimlane;fontStyle=0;align=center;verticalAlign=top;childLayout=stackLayout;horizontal=1;startSize=30;horizontalStack=0;resizeParent=1;resizeParentMax=0;resizeLast=0;collapsible=0;marginBottom=0;html=1;" parent="1" vertex="1">
                    <mxGeometry x="1160" y="2000" width="140" height="138" as="geometry"/>
                </mxCell>
                <mxCell id="94" value="NumVisite : INT&amp;nbsp;&lt;br&gt;DateVisite: String&lt;br&gt;HeureVisite: String&amp;nbsp;" style="text;html=1;strokeColor=none;fillColor=none;align=left;verticalAlign=middle;spacingLeft=4;spacingRight=4;overflow=hidden;rotatable=0;points=[[0,0.5],[1,0.5]];portConstraint=eastwest;" parent="93" vertex="1">
                    <mxGeometry y="30" width="140" height="80" as="geometry"/>
                </mxCell>
                <mxCell id="95" value="" style="line;strokeWidth=1;fillColor=none;align=left;verticalAlign=middle;spacingTop=-1;spacingLeft=3;spacingRight=3;rotatable=0;labelPosition=right;points=[];portConstraint=eastwest;" parent="93" vertex="1">
                    <mxGeometry y="110" width="140" height="8" as="geometry"/>
                </mxCell>
                <mxCell id="96" value="operation1" style="text;html=1;strokeColor=none;fillColor=none;align=left;verticalAlign=middle;spacingLeft=4;spacingRight=4;overflow=hidden;rotatable=0;points=[[0,0.5],[1,0.5]];portConstraint=eastwest;" parent="93" vertex="1">
                    <mxGeometry y="118" width="140" height="20" as="geometry"/>
                </mxCell>
                <mxCell id="98" style="edgeStyle=none;html=1;exitX=0.4;exitY=0.1;exitDx=0;exitDy=0;exitPerimeter=0;" parent="1" source="97" target="45" edge="1">
                    <mxGeometry relative="1" as="geometry"/>
                </mxCell>
                <mxCell id="97" value="Contient les dates des operations" style="ellipse;shape=cloud;whiteSpace=wrap;html=1;" parent="1" vertex="1">
                    <mxGeometry x="1090" y="1803" width="120" height="90" as="geometry"/>
                </mxCell>
                <mxCell id="99" value="Comment trouver la zone d'un conteneur :&amp;nbsp;&lt;br&gt;Table Connaissement --&amp;gt; Table Escle --&amp;gt; Quai = Contient la zone ?&amp;nbsp;" style="rounded=1;whiteSpace=wrap;html=1;" parent="1" vertex="1">
                    <mxGeometry x="850" y="1430" width="390" height="90" as="geometry"/>
                </mxCell>
                <mxCell id="101" value="&lt;div style=&quot;text-align: start;&quot;&gt;&lt;font color=&quot;#ffffff&quot;&gt;&lt;span style=&quot;font-size: 16px; background-color: rgb(255, 153, 204);&quot;&gt;Employee&lt;/span&gt;&lt;/font&gt;&lt;/div&gt;" style="swimlane;fontStyle=0;align=center;verticalAlign=top;childLayout=stackLayout;horizontal=1;startSize=30;horizontalStack=0;resizeParent=1;resizeParentMax=0;resizeLast=0;collapsible=0;marginBottom=0;html=1;" parent="1" vertex="1">
                    <mxGeometry x="690" y="1633" width="180" height="190" as="geometry"/>
                </mxCell>
                <mxCell id="102" value="Employee_ID : INT&lt;br&gt;NomPrenom : String&amp;nbsp;&lt;br&gt;Role : String&amp;nbsp;&lt;br&gt;Adresse : String&amp;nbsp;&lt;br&gt;Tel : INT" style="text;html=1;strokeColor=none;fillColor=none;align=left;verticalAlign=middle;spacingLeft=4;spacingRight=4;overflow=hidden;rotatable=0;points=[[0,0.5],[1,0.5]];portConstraint=eastwest;" parent="101" vertex="1">
                    <mxGeometry y="30" width="180" height="90" as="geometry"/>
                </mxCell>
                <mxCell id="103" value="" style="line;strokeWidth=1;fillColor=none;align=left;verticalAlign=middle;spacingTop=-1;spacingLeft=3;spacingRight=3;rotatable=0;labelPosition=right;points=[];portConstraint=eastwest;" parent="101" vertex="1">
                    <mxGeometry y="120" width="180" height="8" as="geometry"/>
                </mxCell>
                <mxCell id="104" value="TracerConteneur()&lt;br&gt;ArreterTracageConteneur()&lt;br&gt;ConsulterConteneur()" style="text;html=1;strokeColor=none;fillColor=none;align=left;verticalAlign=middle;spacingLeft=4;spacingRight=4;overflow=hidden;rotatable=0;points=[[0,0.5],[1,0.5]];portConstraint=eastwest;" parent="101" vertex="1">
                    <mxGeometry y="128" width="180" height="62" as="geometry"/>
                </mxCell>
                <mxCell id="121" value="Gerent 1" style="text;html=1;align=center;verticalAlign=middle;resizable=0;points=[];autosize=1;strokeColor=none;fillColor=none;" parent="1" vertex="1">
                    <mxGeometry x="535" y="1700" width="70" height="30" as="geometry"/>
                </mxCell>
                <mxCell id="122" value="1..*" style="text;html=1;align=center;verticalAlign=middle;resizable=0;points=[];autosize=1;strokeColor=none;fillColor=none;" parent="1" vertex="1">
                    <mxGeometry x="445" y="1700" width="40" height="30" as="geometry"/>
                </mxCell>
                <mxCell id="123" value="1..1" style="text;html=1;align=center;verticalAlign=middle;resizable=0;points=[];autosize=1;strokeColor=none;fillColor=none;" parent="1" vertex="1">
                    <mxGeometry x="640" y="1700" width="40" height="30" as="geometry"/>
                </mxCell>
                <mxCell id="129" value="Suit" style="text;html=1;align=center;verticalAlign=middle;resizable=0;points=[];autosize=1;strokeColor=none;fillColor=none;" parent="1" vertex="1">
                    <mxGeometry x="770" y="1870" width="40" height="30" as="geometry"/>
                </mxCell>
                <mxCell id="130" value="1..1" style="text;html=1;align=center;verticalAlign=middle;resizable=0;points=[];autosize=1;strokeColor=none;fillColor=none;" parent="1" vertex="1">
                    <mxGeometry x="760" y="1920" width="40" height="30" as="geometry"/>
                </mxCell>
                <mxCell id="131" value="1..n" style="text;html=1;align=center;verticalAlign=middle;resizable=0;points=[];autosize=1;strokeColor=none;fillColor=none;" parent="1" vertex="1">
                    <mxGeometry x="760" y="1825" width="40" height="30" as="geometry"/>
                </mxCell>
                <mxCell id="133" value="1..n" style="text;html=1;align=center;verticalAlign=middle;resizable=0;points=[];autosize=1;strokeColor=none;fillColor=none;" parent="1" vertex="1">
                    <mxGeometry x="460" y="1770" width="40" height="30" as="geometry"/>
                </mxCell>
                <mxCell id="134" value="Gerent 2" style="text;html=1;align=center;verticalAlign=middle;resizable=0;points=[];autosize=1;strokeColor=none;fillColor=none;" parent="1" vertex="1">
                    <mxGeometry x="570" y="1893" width="70" height="30" as="geometry"/>
                </mxCell>
                <mxCell id="136" value="1..1" style="text;html=1;align=center;verticalAlign=middle;resizable=0;points=[];autosize=1;strokeColor=none;fillColor=none;" parent="1" vertex="1">
                    <mxGeometry x="650" y="1970" width="40" height="30" as="geometry"/>
                </mxCell>
                <mxCell id="139" value="" style="edgeStyle=none;orthogonalLoop=1;jettySize=auto;html=1;endArrow=classic;startArrow=classic;endSize=8;startSize=8;exitX=1.002;exitY=0.096;exitDx=0;exitDy=0;exitPerimeter=0;entryX=0.007;entryY=0.829;entryDx=0;entryDy=0;entryPerimeter=0;" parent="1" source="53" target="102" edge="1">
                    <mxGeometry width="100" relative="1" as="geometry">
                        <mxPoint x="570" y="1770" as="sourcePoint"/>
                        <mxPoint x="670" y="1770" as="targetPoint"/>
                        <Array as="points"/>
                    </mxGeometry>
                </mxCell>
                <mxCell id="140" value="" style="edgeStyle=none;orthogonalLoop=1;jettySize=auto;html=1;endArrow=classic;startArrow=classic;endSize=8;startSize=8;exitX=1.007;exitY=0.669;exitDx=0;exitDy=0;exitPerimeter=0;entryX=-0.031;entryY=0.645;entryDx=0;entryDy=0;entryPerimeter=0;" parent="1" source="102" target="43" edge="1">
                    <mxGeometry width="100" relative="1" as="geometry">
                        <mxPoint x="920" y="1720" as="sourcePoint"/>
                        <mxPoint x="1020" y="1720" as="targetPoint"/>
                        <Array as="points"/>
                    </mxGeometry>
                </mxCell>
                <mxCell id="141" value="Travaille" style="text;html=1;align=center;verticalAlign=middle;resizable=0;points=[];autosize=1;strokeColor=none;fillColor=none;" parent="1" vertex="1">
                    <mxGeometry x="940" y="1690" width="70" height="30" as="geometry"/>
                </mxCell>
                <mxCell id="142" value="1..1" style="text;html=1;align=center;verticalAlign=middle;resizable=0;points=[];autosize=1;strokeColor=none;fillColor=none;" parent="1" vertex="1">
                    <mxGeometry x="870" y="1685" width="40" height="30" as="geometry"/>
                </mxCell>
                <mxCell id="143" value="1..n" style="text;html=1;align=center;verticalAlign=middle;resizable=0;points=[];autosize=1;strokeColor=none;fillColor=none;" parent="1" vertex="1">
                    <mxGeometry x="1010" y="1685" width="40" height="30" as="geometry"/>
                </mxCell>
                <mxCell id="144" value="" style="edgeStyle=none;orthogonalLoop=1;jettySize=auto;html=1;endArrow=classic;startArrow=classic;endSize=8;startSize=8;exitX=1;exitY=0.5;exitDx=0;exitDy=0;entryX=0;entryY=0.5;entryDx=0;entryDy=0;" parent="1" source="53" target="35" edge="1">
                    <mxGeometry width="100" relative="1" as="geometry">
                        <mxPoint x="510" y="1970" as="sourcePoint"/>
                        <mxPoint x="610" y="1970" as="targetPoint"/>
                        <Array as="points"/>
                    </mxGeometry>
                </mxCell>
                <mxCell id="145" value="" style="edgeStyle=none;orthogonalLoop=1;jettySize=auto;html=1;endArrow=classic;startArrow=classic;endSize=8;startSize=8;exitX=0.398;exitY=1.039;exitDx=0;exitDy=0;exitPerimeter=0;entryX=0.357;entryY=-0.015;entryDx=0;entryDy=0;entryPerimeter=0;" parent="1" source="104" target="34" edge="1">
                    <mxGeometry width="100" relative="1" as="geometry">
                        <mxPoint x="730" y="1880" as="sourcePoint"/>
                        <mxPoint x="830" y="1880" as="targetPoint"/>
                        <Array as="points"/>
                    </mxGeometry>
                </mxCell>
                <mxCell id="151" value="" style="edgeStyle=none;orthogonalLoop=1;jettySize=auto;html=1;endArrow=classic;startArrow=classic;endSize=8;startSize=8;exitX=1;exitY=0.5;exitDx=0;exitDy=0;entryX=-0.026;entryY=0.659;entryDx=0;entryDy=0;entryPerimeter=0;" parent="1" source="19" target="35" edge="1">
                    <mxGeometry width="100" relative="1" as="geometry">
                        <mxPoint x="600" y="2190" as="sourcePoint"/>
                        <mxPoint x="700" y="2190" as="targetPoint"/>
                        <Array as="points"/>
                    </mxGeometry>
                </mxCell>
                <mxCell id="152" value="Accompagne" style="text;html=1;align=center;verticalAlign=middle;resizable=0;points=[];autosize=1;strokeColor=none;fillColor=none;" parent="1" vertex="1">
                    <mxGeometry x="535" y="2050" width="90" height="30" as="geometry"/>
                </mxCell>
                <mxCell id="153" value="1..1" style="text;html=1;align=center;verticalAlign=middle;resizable=0;points=[];autosize=1;strokeColor=none;fillColor=none;" parent="1" vertex="1">
                    <mxGeometry x="460" y="2046.5" width="40" height="30" as="geometry"/>
                </mxCell>
                <mxCell id="154" value="1..1" style="text;html=1;align=center;verticalAlign=middle;resizable=0;points=[];autosize=1;strokeColor=none;fillColor=none;" parent="1" vertex="1">
                    <mxGeometry x="650" y="2050" width="40" height="30" as="geometry"/>
                </mxCell>
                <mxCell id="155" value="" style="edgeStyle=none;orthogonalLoop=1;jettySize=auto;html=1;endArrow=classic;startArrow=classic;endSize=8;startSize=8;entryX=0.5;entryY=0;entryDx=0;entryDy=0;" parent="1" target="18" edge="1">
                    <mxGeometry width="100" relative="1" as="geometry">
                        <mxPoint x="380" y="1880" as="sourcePoint"/>
                        <mxPoint x="410" y="1930" as="targetPoint"/>
                        <Array as="points"/>
                    </mxGeometry>
                </mxCell>
                <mxCell id="156" value="&lt;span style=&quot;color: rgb(240, 240, 240); font-family: Helvetica; font-size: 12px; font-style: normal; font-variant-ligatures: normal; font-variant-caps: normal; font-weight: 400; letter-spacing: normal; orphans: 2; text-align: center; text-indent: 0px; text-transform: none; widows: 2; word-spacing: 0px; -webkit-text-stroke-width: 0px; background-color: rgb(42, 37, 47); text-decoration-thickness: initial; text-decoration-style: initial; text-decoration-color: initial; float: none; display: inline !important;&quot;&gt;Gerent 3&lt;/span&gt;" style="text;whiteSpace=wrap;html=1;" parent="1" vertex="1">
                    <mxGeometry x="390" y="1930" width="80" height="40" as="geometry"/>
                </mxCell>
                <mxCell id="157" value="1..n" style="text;html=1;align=center;verticalAlign=middle;resizable=0;points=[];autosize=1;strokeColor=none;fillColor=none;" parent="1" vertex="1">
                    <mxGeometry x="330" y="1880" width="40" height="30" as="geometry"/>
                </mxCell>
                <mxCell id="158" value="1..n" style="text;html=1;align=center;verticalAlign=middle;resizable=0;points=[];autosize=1;strokeColor=none;fillColor=none;" parent="1" vertex="1">
                    <mxGeometry x="330" y="1980" width="40" height="30" as="geometry"/>
                </mxCell>
                <mxCell id="159" style="edgeStyle=none;html=1;exitX=0.875;exitY=0.5;exitDx=0;exitDy=0;exitPerimeter=0;entryX=0;entryY=0.5;entryDx=0;entryDy=0;" parent="1" source="160" target="31" edge="1">
                    <mxGeometry relative="1" as="geometry">
                        <mxPoint x="596.5799999999999" y="2469.41" as="targetPoint"/>
                    </mxGeometry>
                </mxCell>
                <mxCell id="160" value="&lt;font color=&quot;#000000&quot;&gt;Table&amp;nbsp;&lt;br&gt;Marchandise&lt;/font&gt;" style="ellipse;shape=cloud;whiteSpace=wrap;html=1;" parent="1" vertex="1">
                    <mxGeometry x="550" y="2345" width="120" height="90" as="geometry"/>
                </mxCell>
                <mxCell id="161" value="" style="edgeStyle=none;orthogonalLoop=1;jettySize=auto;html=1;endArrow=classic;startArrow=classic;endSize=8;startSize=8;exitX=0.431;exitY=1.19;exitDx=0;exitDy=0;exitPerimeter=0;entryX=0.437;entryY=-0.01;entryDx=0;entryDy=0;entryPerimeter=0;" parent="1" source="37" target="30" edge="1">
                    <mxGeometry width="100" relative="1" as="geometry">
                        <mxPoint x="750" y="2240" as="sourcePoint"/>
                        <mxPoint x="850" y="2240" as="targetPoint"/>
                        <Array as="points"/>
                    </mxGeometry>
                </mxCell>
                <mxCell id="162" value="Contient" style="text;html=1;align=center;verticalAlign=middle;resizable=0;points=[];autosize=1;strokeColor=none;fillColor=none;" parent="1" vertex="1">
                    <mxGeometry x="770" y="2240" width="70" height="30" as="geometry"/>
                </mxCell>
                <mxCell id="163" value="1..n" style="text;html=1;align=center;verticalAlign=middle;resizable=0;points=[];autosize=1;strokeColor=none;fillColor=none;" parent="1" vertex="1">
                    <mxGeometry x="770" y="2165" width="40" height="30" as="geometry"/>
                </mxCell>
                <mxCell id="164" value="1..1" style="text;html=1;align=center;verticalAlign=middle;resizable=0;points=[];autosize=1;strokeColor=none;fillColor=none;" parent="1" vertex="1">
                    <mxGeometry x="780" y="2290" width="40" height="30" as="geometry"/>
                </mxCell>
                <mxCell id="165" value="" style="edgeStyle=none;orthogonalLoop=1;jettySize=auto;html=1;endArrow=classic;startArrow=classic;endSize=8;startSize=8;entryX=0;entryY=0.5;entryDx=0;entryDy=0;" parent="1" edge="1">
                    <mxGeometry width="100" relative="1" as="geometry">
                        <mxPoint x="850" y="2385" as="sourcePoint"/>
                        <mxPoint x="1020" y="2385" as="targetPoint"/>
                        <Array as="points"/>
                    </mxGeometry>
                </mxCell>
                <mxCell id="166" value="Possede" style="text;html=1;align=center;verticalAlign=middle;resizable=0;points=[];autosize=1;strokeColor=none;fillColor=none;" parent="1" vertex="1">
                    <mxGeometry x="910" y="2360" width="70" height="30" as="geometry"/>
                </mxCell>
                <mxCell id="167" value="1..1" style="text;html=1;align=center;verticalAlign=middle;resizable=0;points=[];autosize=1;strokeColor=none;fillColor=none;" parent="1" vertex="1">
                    <mxGeometry x="860" y="2345" width="40" height="30" as="geometry"/>
                </mxCell>
                <mxCell id="168" value="1..n" style="text;html=1;align=center;verticalAlign=middle;resizable=0;points=[];autosize=1;strokeColor=none;fillColor=none;" parent="1" vertex="1">
                    <mxGeometry x="970" y="2345" width="40" height="30" as="geometry"/>
                </mxCell>
                <mxCell id="169" value="Concerne" style="text;html=1;align=center;verticalAlign=middle;resizable=0;points=[];autosize=1;strokeColor=none;fillColor=none;" parent="1" vertex="1">
                    <mxGeometry x="960" y="2039" width="80" height="30" as="geometry"/>
                </mxCell>
                <mxCell id="171" value="" style="edgeStyle=none;orthogonalLoop=1;jettySize=auto;html=1;endArrow=classic;startArrow=classic;endSize=8;startSize=8;exitX=1.009;exitY=0.646;exitDx=0;exitDy=0;exitPerimeter=0;entryX=-0.017;entryY=0.615;entryDx=0;entryDy=0;entryPerimeter=0;" parent="1" source="35" target="94" edge="1">
                    <mxGeometry width="100" relative="1" as="geometry">
                        <mxPoint x="980" y="2090" as="sourcePoint"/>
                        <mxPoint x="1080" y="2090" as="targetPoint"/>
                        <Array as="points"/>
                    </mxGeometry>
                </mxCell>
                <mxCell id="172" value="1..1" style="text;html=1;align=center;verticalAlign=middle;resizable=0;points=[];autosize=1;strokeColor=none;fillColor=none;" parent="1" vertex="1">
                    <mxGeometry x="860" y="2046.5" width="40" height="30" as="geometry"/>
                </mxCell>
                <mxCell id="173" value="1..n" style="text;html=1;align=center;verticalAlign=middle;resizable=0;points=[];autosize=1;strokeColor=none;fillColor=none;" parent="1" vertex="1">
                    <mxGeometry x="1100" y="2045" width="40" height="30" as="geometry"/>
                </mxCell>
                <mxCell id="174" value="" style="edgeStyle=none;orthogonalLoop=1;jettySize=auto;html=1;endArrow=classic;startArrow=classic;endSize=8;startSize=8;entryX=-0.02;entryY=0.442;entryDx=0;entryDy=0;entryPerimeter=0;exitX=1.017;exitY=0.646;exitDx=0;exitDy=0;exitPerimeter=0;" parent="1" edge="1">
                    <mxGeometry width="100" relative="1" as="geometry">
                        <mxPoint x="1162.38" y="2395.22" as="sourcePoint"/>
                        <mxPoint x="1307.1999999999998" y="2395.25" as="targetPoint"/>
                        <Array as="points"/>
                    </mxGeometry>
                </mxCell>
                <mxCell id="175" value="" style="edgeStyle=none;orthogonalLoop=1;jettySize=auto;html=1;endArrow=classic;startArrow=classic;endSize=8;startSize=8;exitX=0.5;exitY=1.14;exitDx=0;exitDy=0;entryX=0.5;entryY=0;entryDx=0;entryDy=0;exitPerimeter=0;" parent="1" source="184" target="83" edge="1">
                    <mxGeometry width="100" relative="1" as="geometry">
                        <mxPoint x="1450" y="2402.5" as="sourcePoint"/>
                        <mxPoint x="1580" y="2410" as="targetPoint"/>
                        <Array as="points"/>
                    </mxGeometry>
                </mxCell>
                <mxCell id="176" value="Represente" style="text;html=1;align=center;verticalAlign=middle;resizable=0;points=[];autosize=1;strokeColor=none;fillColor=none;" parent="1" vertex="1">
                    <mxGeometry x="1380" y="2510" width="90" height="30" as="geometry"/>
                </mxCell>
                <mxCell id="178" value="&lt;div style=&quot;text-align: center;&quot;&gt;&lt;span style=&quot;background-color: initial;&quot;&gt;1..1&lt;/span&gt;&lt;/div&gt;" style="text;whiteSpace=wrap;html=1;" parent="1" vertex="1">
                    <mxGeometry x="1335" y="2470" width="50" height="40" as="geometry"/>
                </mxCell>
                <mxCell id="180" value="1..n" style="text;html=1;align=center;verticalAlign=middle;resizable=0;points=[];autosize=1;strokeColor=none;fillColor=none;" parent="1" vertex="1">
                    <mxGeometry x="1330" y="2560" width="40" height="30" as="geometry"/>
                </mxCell>
                <mxCell id="181" value="&lt;div style=&quot;text-align: start;&quot;&gt;&lt;font color=&quot;#ffffff&quot;&gt;&lt;span style=&quot;font-size: 16px; background-color: rgb(32, 33, 36);&quot;&gt;Connaissement&lt;/span&gt;&lt;/font&gt;&lt;/div&gt;" style="swimlane;fontStyle=0;align=center;verticalAlign=top;childLayout=stackLayout;horizontal=1;startSize=30;horizontalStack=0;resizeParent=1;resizeParentMax=0;resizeLast=0;collapsible=0;marginBottom=0;html=1;" parent="1" vertex="1">
                    <mxGeometry x="1310" y="2330" width="140" height="128" as="geometry"/>
                </mxCell>
                <mxCell id="182" value="CNSNUM : INT&amp;nbsp;&lt;br&gt;CNSNDS: String&amp;nbsp;&lt;br&gt;CNSADS: String&amp;nbsp;&lt;br&gt;CMSBLD : Double&amp;nbsp;&lt;br&gt;&amp;nbsp;" style="text;html=1;strokeColor=none;fillColor=none;align=left;verticalAlign=middle;spacingLeft=4;spacingRight=4;overflow=hidden;rotatable=0;points=[[0,0.5],[1,0.5]];portConstraint=eastwest;" parent="181" vertex="1">
                    <mxGeometry y="30" width="140" height="70" as="geometry"/>
                </mxCell>
                <mxCell id="183" value="" style="line;strokeWidth=1;fillColor=none;align=left;verticalAlign=middle;spacingTop=-1;spacingLeft=3;spacingRight=3;rotatable=0;labelPosition=right;points=[];portConstraint=eastwest;" parent="181" vertex="1">
                    <mxGeometry y="100" width="140" height="8" as="geometry"/>
                </mxCell>
                <mxCell id="184" value="operation1" style="text;html=1;strokeColor=none;fillColor=none;align=left;verticalAlign=middle;spacingLeft=4;spacingRight=4;overflow=hidden;rotatable=0;points=[[0,0.5],[1,0.5]];portConstraint=eastwest;" parent="181" vertex="1">
                    <mxGeometry y="108" width="140" height="20" as="geometry"/>
                </mxCell>
                <mxCell id="186" value="&lt;span style=&quot;font-size: 16px; text-align: start; background-color: rgb(32, 33, 36);&quot;&gt;&lt;font color=&quot;#ffffff&quot;&gt;consignataire&lt;/font&gt;&lt;/span&gt;" style="swimlane;fontStyle=0;align=center;verticalAlign=top;childLayout=stackLayout;horizontal=1;startSize=30;horizontalStack=0;resizeParent=1;resizeParentMax=0;resizeLast=0;collapsible=0;marginBottom=0;html=1;" parent="1" vertex="1">
                    <mxGeometry x="1020" y="2280" width="140" height="183" as="geometry"/>
                </mxCell>
                <mxCell id="187" value="ConsCode : INT&amp;nbsp;&lt;br&gt;NomPrenom: String&lt;br&gt;Adresse: String&amp;nbsp;&lt;br&gt;Tel: int&lt;br&gt;TelPhax: int&amp;nbsp;&lt;br&gt;Email : String&amp;nbsp;" style="text;html=1;strokeColor=none;fillColor=none;align=left;verticalAlign=middle;spacingLeft=4;spacingRight=4;overflow=hidden;rotatable=0;points=[[0,0.5],[1,0.5]];portConstraint=eastwest;" parent="186" vertex="1">
                    <mxGeometry y="30" width="140" height="125" as="geometry"/>
                </mxCell>
                <mxCell id="188" value="" style="line;strokeWidth=1;fillColor=none;align=left;verticalAlign=middle;spacingTop=-1;spacingLeft=3;spacingRight=3;rotatable=0;labelPosition=right;points=[];portConstraint=eastwest;" parent="186" vertex="1">
                    <mxGeometry y="155" width="140" height="8" as="geometry"/>
                </mxCell>
                <mxCell id="189" value="operation1" style="text;html=1;strokeColor=none;fillColor=none;align=left;verticalAlign=middle;spacingLeft=4;spacingRight=4;overflow=hidden;rotatable=0;points=[[0,0.5],[1,0.5]];portConstraint=eastwest;" parent="186" vertex="1">
                    <mxGeometry y="163" width="140" height="20" as="geometry"/>
                </mxCell>
                <mxCell id="194" value="" style="edgeStyle=none;orthogonalLoop=1;jettySize=auto;html=1;endArrow=classic;startArrow=classic;endSize=8;startSize=8;entryX=0;entryY=0.85;entryDx=0;entryDy=0;entryPerimeter=0;exitX=1;exitY=0;exitDx=0;exitDy=0;" parent="1" source="58" target="37" edge="1">
                    <mxGeometry width="100" relative="1" as="geometry">
                        <mxPoint x="560" y="2320" as="sourcePoint"/>
                        <mxPoint x="660" y="2320" as="targetPoint"/>
                        <Array as="points"/>
                    </mxGeometry>
                </mxCell>
                <mxCell id="195" value="Se Trouvent" style="text;html=1;align=center;verticalAlign=middle;resizable=0;points=[];autosize=1;strokeColor=none;fillColor=none;rotation=-25;" parent="1" vertex="1">
                    <mxGeometry x="520" y="2165" width="90" height="30" as="geometry"/>
                </mxCell>
                <mxCell id="197" value="1..n" style="text;html=1;align=center;verticalAlign=middle;resizable=0;points=[];autosize=1;strokeColor=none;fillColor=none;" parent="1" vertex="1">
                    <mxGeometry x="420" y="2210" width="40" height="30" as="geometry"/>
                </mxCell>
                <mxCell id="198" value="1..1" style="text;html=1;align=center;verticalAlign=middle;resizable=0;points=[];autosize=1;strokeColor=none;fillColor=none;" parent="1" vertex="1">
                    <mxGeometry x="660" y="2125" width="40" height="30" as="geometry"/>
                </mxCell>
                <mxCell id="200" value="" style="endArrow=diamondThin;endFill=1;endSize=24;html=1;entryX=0.5;entryY=1.1;entryDx=0;entryDy=0;entryPerimeter=0;exitX=0.5;exitY=0;exitDx=0;exitDy=0;" parent="1" source="54" target="61" edge="1">
                    <mxGeometry width="160" relative="1" as="geometry">
                        <mxPoint x="670" y="2470" as="sourcePoint"/>
                        <mxPoint x="830" y="2470" as="targetPoint"/>
                    </mxGeometry>
                </mxCell>
                <mxCell id="201" value="1..n" style="text;html=1;align=center;verticalAlign=middle;resizable=0;points=[];autosize=1;strokeColor=none;fillColor=none;" parent="1" vertex="1">
                    <mxGeometry x="370" y="2440" width="40" height="30" as="geometry"/>
                </mxCell>
                <mxCell id="203" value="" style="endArrow=block;endSize=16;endFill=0;html=1;exitX=0.5;exitY=0;exitDx=0;exitDy=0;entryX=0;entryY=0.5;entryDx=0;entryDy=0;" parent="1" source="50" target="47" edge="1">
                    <mxGeometry width="160" relative="1" as="geometry">
                        <mxPoint x="410" y="1510" as="sourcePoint"/>
                        <mxPoint x="570" y="1510" as="targetPoint"/>
                        <Array as="points">
                            <mxPoint x="345" y="1400"/>
                        </Array>
                    </mxGeometry>
                </mxCell>
                <mxCell id="204" value="" style="endArrow=block;endSize=16;endFill=0;html=1;exitX=0.5;exitY=0;exitDx=0;exitDy=0;entryX=1;entryY=0.5;entryDx=0;entryDy=0;" parent="1" source="101" target="47" edge="1">
                    <mxGeometry width="160" relative="1" as="geometry">
                        <mxPoint x="730" y="1510" as="sourcePoint"/>
                        <mxPoint x="890" y="1510" as="targetPoint"/>
                        <Array as="points">
                            <mxPoint x="780" y="1400"/>
                        </Array>
                    </mxGeometry>
                </mxCell>
                <mxCell id="206" value="" style="edgeStyle=none;orthogonalLoop=1;jettySize=auto;html=1;endArrow=classic;startArrow=classic;endSize=8;startSize=8;exitX=0;exitY=0.5;exitDx=0;exitDy=0;entryX=1.034;entryY=0.576;entryDx=0;entryDy=0;entryPerimeter=0;" parent="1" source="217" target="4" edge="1">
                    <mxGeometry width="100" relative="1" as="geometry">
                        <mxPoint x="40" y="1443.2" as="sourcePoint"/>
                        <mxPoint x="90" y="1530" as="targetPoint"/>
                        <Array as="points"/>
                    </mxGeometry>
                </mxCell>
                <mxCell id="211" value="" style="edgeStyle=none;orthogonalLoop=1;jettySize=auto;html=1;endArrow=classic;startArrow=classic;endSize=8;startSize=8;exitX=-0.031;exitY=0.253;exitDx=0;exitDy=0;exitPerimeter=0;entryX=0.451;entryY=0.95;entryDx=0;entryDy=0;entryPerimeter=0;" parent="1" source="15" target="9" edge="1">
                    <mxGeometry width="100" relative="1" as="geometry">
                        <mxPoint x="-110" y="1750" as="sourcePoint"/>
                        <mxPoint x="-30" y="1660" as="targetPoint"/>
                        <Array as="points">
                            <mxPoint x="-197" y="2560"/>
                        </Array>
                    </mxGeometry>
                </mxCell>
                <mxCell id="212" value="Possede" style="text;html=1;align=center;verticalAlign=middle;resizable=0;points=[];autosize=1;strokeColor=none;fillColor=none;" parent="1" vertex="1">
                    <mxGeometry x="-180" y="2518" width="70" height="30" as="geometry"/>
                </mxCell>
                <mxCell id="214" value="1..n" style="text;html=1;align=center;verticalAlign=middle;resizable=0;points=[];autosize=1;strokeColor=none;fillColor=none;" parent="1" vertex="1">
                    <mxGeometry x="-40" y="2520" width="40" height="30" as="geometry"/>
                </mxCell>
                <mxCell id="215" value="1..1" style="text;html=1;align=center;verticalAlign=middle;resizable=0;points=[];autosize=1;strokeColor=none;fillColor=none;" parent="1" vertex="1">
                    <mxGeometry x="-190" y="2428" width="40" height="30" as="geometry"/>
                </mxCell>
                <mxCell id="216" value="&lt;div style=&quot;text-align: start;&quot;&gt;&lt;font color=&quot;#ffffff&quot;&gt;&lt;span style=&quot;font-size: 16px; background-color: rgb(32, 33, 36);&quot;&gt;Quai&amp;nbsp;&lt;/span&gt;&lt;/font&gt;&lt;/div&gt;" style="swimlane;fontStyle=0;align=center;verticalAlign=top;childLayout=stackLayout;horizontal=1;startSize=30;horizontalStack=0;resizeParent=1;resizeParentMax=0;resizeLast=0;collapsible=0;marginBottom=0;html=1;" parent="1" vertex="1">
                    <mxGeometry x="20" y="2240" width="140" height="183" as="geometry"/>
                </mxCell>
                <mxCell id="217" value="NavNum : INT&amp;nbsp;&lt;br&gt;SpeCode: String&lt;br&gt;PavCode: String&amp;nbsp;&lt;br&gt;NavNom: String&amp;nbsp;&lt;br&gt;NavLong : Double&amp;nbsp;&lt;br&gt;NavTJB : String&amp;nbsp;&lt;br&gt;NavPort : String&amp;nbsp;" style="text;html=1;strokeColor=none;fillColor=none;align=left;verticalAlign=middle;spacingLeft=4;spacingRight=4;overflow=hidden;rotatable=0;points=[[0,0.5],[1,0.5]];portConstraint=eastwest;" parent="216" vertex="1">
                    <mxGeometry y="30" width="140" height="125" as="geometry"/>
                </mxCell>
                <mxCell id="218" value="" style="line;strokeWidth=1;fillColor=none;align=left;verticalAlign=middle;spacingTop=-1;spacingLeft=3;spacingRight=3;rotatable=0;labelPosition=right;points=[];portConstraint=eastwest;" parent="216" vertex="1">
                    <mxGeometry y="155" width="140" height="8" as="geometry"/>
                </mxCell>
                <mxCell id="219" value="operation1" style="text;html=1;strokeColor=none;fillColor=none;align=left;verticalAlign=middle;spacingLeft=4;spacingRight=4;overflow=hidden;rotatable=0;points=[[0,0.5],[1,0.5]];portConstraint=eastwest;" parent="216" vertex="1">
                    <mxGeometry y="163" width="140" height="20" as="geometry"/>
                </mxCell>
                <mxCell id="220" value="Est accoster" style="text;html=1;align=center;verticalAlign=middle;resizable=0;points=[];autosize=1;strokeColor=none;fillColor=none;" parent="1" vertex="1">
                    <mxGeometry x="-90" y="2300" width="90" height="30" as="geometry"/>
                </mxCell>
                <mxCell id="221" value="1..n" style="text;html=1;align=center;verticalAlign=middle;resizable=0;points=[];autosize=1;strokeColor=none;fillColor=none;" parent="1" vertex="1">
                    <mxGeometry x="-20" y="2280" width="40" height="30" as="geometry"/>
                </mxCell>
                <mxCell id="222" value="1..1" style="text;html=1;align=center;verticalAlign=middle;resizable=0;points=[];autosize=1;strokeColor=none;fillColor=none;" parent="1" vertex="1">
                    <mxGeometry x="-120" y="2280" width="40" height="30" as="geometry"/>
                </mxCell>
                <mxCell id="223" value="" style="edgeStyle=none;orthogonalLoop=1;jettySize=auto;html=1;endArrow=classic;startArrow=classic;endSize=8;startSize=8;entryX=0;entryY=0.5;entryDx=0;entryDy=0;" parent="1" target="59" edge="1">
                    <mxGeometry width="100" relative="1" as="geometry">
                        <mxPoint x="170" y="2315" as="sourcePoint"/>
                        <mxPoint x="280" y="2320" as="targetPoint"/>
                        <Array as="points"/>
                    </mxGeometry>
                </mxCell>
                <mxCell id="224" value="Appartient a&amp;nbsp;" style="text;html=1;align=center;verticalAlign=middle;resizable=0;points=[];autosize=1;strokeColor=none;fillColor=none;" parent="1" vertex="1">
                    <mxGeometry x="190" y="2280" width="90" height="30" as="geometry"/>
                </mxCell>
                <mxCell id="225" value="1..1" style="text;html=1;align=center;verticalAlign=middle;resizable=0;points=[];autosize=1;strokeColor=none;fillColor=none;" parent="1" vertex="1">
                    <mxGeometry x="170" y="2250" width="40" height="30" as="geometry"/>
                </mxCell>
                <mxCell id="226" value="1..n" style="text;html=1;align=center;verticalAlign=middle;resizable=0;points=[];autosize=1;strokeColor=none;fillColor=none;" parent="1" vertex="1">
                    <mxGeometry x="250" y="2250" width="40" height="30" as="geometry"/>
                </mxCell>
                <mxCell id="229" value="" style="edgeStyle=none;orthogonalLoop=1;jettySize=auto;html=1;endArrow=classic;startArrow=classic;endSize=8;startSize=8;entryX=0;entryY=0.5;entryDx=0;entryDy=0;" parent="1" target="27" edge="1">
                    <mxGeometry width="100" relative="1" as="geometry">
                        <mxPoint x="-200" y="2220" as="sourcePoint"/>
                        <mxPoint x="-120" y="2090" as="targetPoint"/>
                        <Array as="points">
                            <mxPoint x="-200" y="2075"/>
                            <mxPoint x="-200" y="2025"/>
                        </Array>
                    </mxGeometry>
                </mxCell>
                <mxCell id="230" value="se pause" style="text;html=1;align=center;verticalAlign=middle;resizable=0;points=[];autosize=1;strokeColor=none;fillColor=none;" parent="1" vertex="1">
                    <mxGeometry x="-205" y="1990" width="70" height="30" as="geometry"/>
                </mxCell>
                <mxCell id="231" value="1..1" style="text;html=1;align=center;verticalAlign=middle;resizable=0;points=[];autosize=1;strokeColor=none;fillColor=none;" parent="1" vertex="1">
                    <mxGeometry x="-250" y="2190" width="40" height="30" as="geometry"/>
                </mxCell>
                <mxCell id="232" value="1..n" style="text;html=1;align=center;verticalAlign=middle;resizable=0;points=[];autosize=1;strokeColor=none;fillColor=none;" parent="1" vertex="1">
                    <mxGeometry x="-30" y="1990" width="40" height="30" as="geometry"/>
                </mxCell>
                <mxCell id="234" value="" style="edgeStyle=none;orthogonalLoop=1;jettySize=auto;html=1;endArrow=classic;startArrow=classic;endSize=8;startSize=8;exitX=0.423;exitY=1;exitDx=0;exitDy=0;exitPerimeter=0;" parent="1" source="29" edge="1">
                    <mxGeometry width="100" relative="1" as="geometry">
                        <mxPoint x="50" y="2160" as="sourcePoint"/>
                        <mxPoint x="79" y="2230" as="targetPoint"/>
                        <Array as="points"/>
                    </mxGeometry>
                </mxCell>
                <mxCell id="235" value="Est Associer" style="text;html=1;align=center;verticalAlign=middle;resizable=0;points=[];autosize=1;strokeColor=none;fillColor=none;" parent="1" vertex="1">
                    <mxGeometry x="80" y="2155" width="90" height="30" as="geometry"/>
                </mxCell>
                <mxCell id="236" value="1..1" style="text;html=1;align=center;verticalAlign=middle;resizable=0;points=[];autosize=1;strokeColor=none;fillColor=none;" parent="1" vertex="1">
                    <mxGeometry x="80" y="2115" width="40" height="30" as="geometry"/>
                </mxCell>
                <mxCell id="237" value="1..n" style="text;html=1;align=center;verticalAlign=middle;resizable=0;points=[];autosize=1;strokeColor=none;fillColor=none;" parent="1" vertex="1">
                    <mxGeometry x="80" y="2200" width="40" height="30" as="geometry"/>
                </mxCell>
            </root>
        </mxGraphModel>
    </diagram>
</mxfile>